<svg width="53" height="57" viewBox="0 0 53 57" fill="none" xmlns="http://www.w3.org/2000/svg">
<path d="M52.885 25.7819C52.5641 24.4843 51.5287 23.6247 50.3328 23.6247H45.0241C45.1116 23.1056 45.1991 22.5704 45.2721 22.0189C45.3741 21.3377 45.5929 19.0183 44.2512 17.2504C43.4782 16.2448 42.3698 15.6934 41.1156 15.6934H4.45108C3.09476 15.6934 1.89886 16.2773 1.09673 17.3315C-0.230424 19.067 -0.0262458 21.3215 0.0758431 21.9865C1.16965 29.4799 3.05101 35.1567 5.80741 39.3575C8.73882 43.8017 10.7077 51.0031 10.8535 51.5708C11.4952 54.2632 13.8578 56.2907 16.3663 56.2907H28.967C31.4755 56.2907 33.8235 54.2794 34.4798 51.6032C34.9319 50.0299 36.0841 46.4779 37.4841 43.3313C39.7009 43.234 43.7407 42.8934 45.6367 41.612C46.0742 41.3039 47.4305 40.3956 50.3473 34.1511C53.3662 27.7282 53.0892 26.6091 52.885 25.7819ZM40.1968 21.3702C41.3198 23.0246 40.9697 25.7656 40.5322 29.1879C40.153 32.1237 39.4092 34.443 38.7967 36.0001C38.4029 36.7624 33.6777 45.4723 24.3438 46.2184C17.4747 46.7698 10.8098 42.7961 7.22207 36.0001C6.66787 34.9459 5.06362 32.5454 4.21774 28.8636C3.26977 24.7114 3.70729 21.1918 4.07189 19.2941C13.3036 22.1649 20.5811 22.0838 25.6564 21.4026C32.1463 20.543 38.1258 18.3047 40.1968 21.3702ZM42.9094 36.8111C42.5448 36.9895 41.7719 37.1841 40.7947 37.3301C42.0052 35.0432 43.0115 32.3832 43.8136 29.3015H46.8326C45.6367 32.1237 43.7407 35.8866 42.9094 36.8111Z" fill="white"/>
<path d="M16.9206 21.0138C16.8331 21.0138 16.731 20.9976 16.6435 20.9652C16.3518 20.8517 16.2497 20.5759 16.3955 20.3651C17.8831 18.1917 19.8374 14.1855 16.1476 11.8012C12.2391 9.25474 13.5662 4.37269 13.6245 4.17806C13.6975 3.93476 14.0037 3.78879 14.3246 3.83745C14.6454 3.88611 14.835 4.1294 14.7767 4.37269C14.7621 4.42135 13.537 8.93036 16.9206 11.12C21.2375 13.9097 19.1082 18.3863 17.4456 20.803C17.3289 20.9327 17.1247 21.0138 16.9206 21.0138Z" fill="white"/>
<path d="M20.1438 20.6076C20.0563 20.6076 19.9542 20.5914 19.8667 20.5589C19.575 20.4454 19.4729 20.1697 19.6188 19.9588C21.1064 17.7854 23.0606 13.7792 19.3708 11.395C15.4477 8.86472 16.7895 3.98266 16.8478 3.77181C16.9207 3.52851 17.227 3.38254 17.5478 3.4312C17.8687 3.47986 18.0583 3.72315 17.9999 3.96644C17.9854 4.0151 16.7603 8.52411 20.1438 10.7137C24.4607 13.5035 22.3314 17.9801 20.6688 20.3968C20.5522 20.5265 20.348 20.6076 20.1438 20.6076Z" fill="white"/>
<path d="M25.6563 17.592C25.5688 17.592 25.4667 17.5758 25.3792 17.5433C25.0875 17.4298 24.9854 17.1541 25.1312 16.9432C26.6188 14.7698 28.5731 10.7636 24.8833 8.37933C20.9602 5.84909 22.3019 0.967035 22.3602 0.756182C22.4332 0.51289 22.7394 0.366915 23.0603 0.415573C23.3811 0.464231 23.5707 0.707523 23.5124 0.950815C23.4978 1.01569 22.2873 5.50848 25.6563 7.69811C29.9732 10.4879 27.8439 14.9644 26.1813 17.3811C26.0792 17.5109 25.875 17.592 25.6563 17.592Z" fill="white"/>
<path d="M28.8796 17.1857C28.7921 17.1857 28.6901 17.1695 28.6025 17.1371C28.3109 17.0235 28.2088 16.7478 28.3546 16.537C29.8422 14.3635 31.7965 10.3573 28.1067 7.97308C24.1836 5.44284 25.5253 0.560785 25.5836 0.349932C25.6566 0.10664 25.9628 -0.0393354 26.2837 0.00932303C26.6045 0.0579814 26.7941 0.301273 26.7358 0.544565C26.7212 0.593224 25.4961 5.10223 28.8796 7.29186C33.1965 10.0816 31.0673 14.5582 29.4047 16.9749C29.3026 17.1046 29.0984 17.1857 28.8796 17.1857Z" fill="white"/>
</svg>
