<svg width="34" height="56" viewBox="0 0 34 56" fill="none" xmlns="http://www.w3.org/2000/svg">
<path d="M31.7328 12.2767L31.3751 11.5138H19.5628L10.4011 11.4287C10.3895 11.4547 10.3866 11.4821 10.3838 11.5138C9.78384 11.5138 8.61141 16.4141 8.61141 16.4141L8.21194 18.9349C7.74759 22.8776 7.92641 27.9567 10.5857 32.322C15.0374 39.6479 11.288 50.5257 11.2519 50.6325L11.1726 50.8488V56H30.3988L30.3051 50.7695L30.1868 50.5156C30.1508 50.4334 26.407 42.0937 30.9555 32.5224C36.0605 21.7903 31.9101 12.6617 31.7328 12.2767ZM27.6703 51.3651L27.7035 53.3537H13.8203V51.2944C14.3885 49.5797 17.5784 38.9946 12.9478 31.1351C13.3761 31.7826 15.2292 33.7237 20.6747 30.2035C27.0618 26.0834 28.5659 31.3832 28.5659 31.3832C23.8819 41.2313 26.9839 49.7239 27.6703 51.3651Z" fill="white"/>
<path d="M2.32238 7.59804C3.10689 3.90768 6.75254 1.54118 10.44 2.33001C14.1318 3.11596 16.4983 6.75584 15.7153 10.4476L17.8395 10.9034C18.8778 6.03623 15.7643 1.23401 10.8986 0.200014C6.03726 -0.839747 1.23647 2.27809 0.199598 7.14233C-0.838721 12.0066 2.27768 16.8059 7.13759 17.8399L7.59473 15.7128C3.90438 14.9326 1.53787 11.287 2.32238 7.59804Z" fill="white"/>
<path d="M15.0562 10.4534L15.0908 10.2876C15.4384 8.66519 15.1283 7.00676 14.227 5.61224C13.3242 4.22349 11.9326 3.26593 10.3088 2.91838C9.72904 2.79725 9.13345 2.75254 8.5393 2.79725C5.81372 3.00635 3.50923 5.01954 2.94248 7.70042C2.22863 11.049 4.37449 14.3529 7.72163 15.0653L7.89324 15.1013L9.61368 10.0511L15.0562 10.4534ZM9.34544 9.64582L9.3166 9.72081C9.15364 9.80301 8.9604 9.82753 8.78014 9.78571C8.56526 9.741 8.38067 9.61698 8.26242 9.43095C8.13984 9.24492 8.09946 9.02283 8.14849 8.80507C8.21771 8.4532 8.52921 8.1792 8.88829 8.15468C8.96905 8.14891 9.04693 8.15468 9.1248 8.17199C9.57474 8.26717 9.85739 8.70701 9.76365 9.15262C9.71751 9.3574 9.60646 9.52901 9.4363 9.65015L9.34544 9.64582Z" fill="white"/>
</svg>
